<?xml version="1.0" encoding="UTF-8" standalone="no"?>
<!-- Created with Inkscape (http://www.inkscape.org/) -->

<svg
   width="1024"
   height="1024"
   viewBox="0 0 270.93333 270.93333"
   version="1.1"
   id="svg5"
   inkscape:version="1.2.1 (9c6d41e410, 2022-07-14)"
   sodipodi:docname="Perkedel_ASTR_logo.svg"
   xmlns:inkscape="http://www.inkscape.org/namespaces/inkscape"
   xmlns:sodipodi="http://sodipodi.sourceforge.net/DTD/sodipodi-0.dtd"
   xmlns="http://www.w3.org/2000/svg"
   xmlns:svg="http://www.w3.org/2000/svg"
   xmlns:rdf="http://www.w3.org/1999/02/22-rdf-syntax-ns#"
   xmlns:cc="http://creativecommons.org/ns#">
  <sodipodi:namedview
     id="namedview7"
     pagecolor="#ffffff"
     bordercolor="#666666"
     borderopacity="1.0"
     inkscape:showpageshadow="2"
     inkscape:pageopacity="0.0"
     inkscape:pagecheckerboard="0"
     inkscape:deskcolor="#d1d1d1"
     inkscape:document-units="mm"
     showgrid="true"
     inkscape:zoom="0.79285915"
     inkscape:cx="401.7107"
     inkscape:cy="682.97125"
     inkscape:window-width="1920"
     inkscape:window-height="1051"
     inkscape:window-x="-9"
     inkscape:window-y="-9"
     inkscape:window-maximized="1"
     inkscape:current-layer="layer1">
    <inkscape:grid
       type="xygrid"
       id="grid132"
       empspacing="4" />
    <inkscape:grid
       type="xygrid"
       id="grid134"
       empspacing="64" />
  </sodipodi:namedview>
  <defs
     id="defs2" />
  <g
     inkscape:label="Lapis 1"
     inkscape:groupmode="layer"
     id="layer1">
    <rect
       style="fill:#000000;stroke:none;stroke-width:1.32292;stroke-linecap:round;stroke-linejoin:bevel;paint-order:fill markers stroke"
       id="rect299"
       width="270.93332"
       height="270.93332"
       x="0"
       y="0"
       ry="0" />
    <rect
       style="fill:#003380;stroke:none;stroke-width:1.2666;stroke-linecap:round;stroke-linejoin:bevel;paint-order:fill markers stroke"
       id="rect959"
       width="270.93332"
       height="186.26666"
       x="0"
       y="0" />
    <g
       transform="matrix(2.1084306,0,0,2.1084306,-658.71984,2.6355376)"
       id="g877"
       inkscape:export-xdpi="747.08173"
       inkscape:export-ydpi="747.08173"
       style="display:inline">
      <circle
         r="128"
         cy="-69.5"
         cx="160"
         id="path871"
         style="fill:#ffffff;fill-opacity:0;stroke:#000000;stroke-opacity:1" />
      <g
         inkscape:export-ydpi="300"
         inkscape:export-xdpi="300"
         transform="translate(-128,-448)"
         id="g1492-8-9-4">
        <path
           inkscape:connector-curvature="0"
           style="opacity:1;fill:#ffc800;fill-opacity:1;fill-rule:nonzero;stroke:none;stroke-opacity:1"
           d="m 256,208 a 64,64 0 0 0 -64,64 64,64 0 0 0 64,64 h 64 a 64,64 0 0 0 64,-64 64,64 0 0 0 -64,-64 z"
           transform="translate(0,106.5)"
           id="path1451-5-4-4" />
        <path
           inkscape:connector-curvature="0"
           style="opacity:1;fill:#fffe00;fill-opacity:1;fill-rule:nonzero;stroke:none;stroke-width:1.04447;stroke-opacity:1"
           d="m 288,224 a 4,4 0 0 0 -4,4 v 40 h -40 a 4,4 0 0 0 -4,4 4,4 0 0 0 4,4 h 40 v 40 a 4,4 0 0 0 4,4 4,4 0 0 0 4,-4 v -40 h 40 a 4,4 0 0 0 4,-4 4,4 0 0 0 -4,-4 h -40 v -40 a 4,4 0 0 0 -4,-4 z"
           transform="translate(0,106.5)"
           id="rect1461-3-1-6" />
      </g>
    </g>
    <g
       transform="matrix(0.60335958,0,0,0.60335958,38.929136,145.94693)"
       id="g2459"
       inkscape:export-xdpi="747.08173"
       inkscape:export-ydpi="747.08173"
       style="display:inline">
      <circle
         r="128"
         cy="-69.5"
         cx="160"
         id="circle2451"
         style="fill:#ffffff;fill-opacity:0;stroke:#000000;stroke-opacity:1" />
      <g
         inkscape:export-ydpi="300"
         inkscape:export-xdpi="300"
         transform="translate(-128,-448)"
         id="g2457">
        <path
           inkscape:connector-curvature="0"
           style="opacity:1;fill:#ffc800;fill-opacity:1;fill-rule:nonzero;stroke:none;stroke-opacity:1"
           d="m 256,208 a 64,64 0 0 0 -64,64 64,64 0 0 0 64,64 h 64 a 64,64 0 0 0 64,-64 64,64 0 0 0 -64,-64 z"
           transform="translate(0,106.5)"
           id="path2453" />
        <path
           inkscape:connector-curvature="0"
           style="opacity:1;fill:#fffe00;fill-opacity:1;fill-rule:nonzero;stroke:none;stroke-width:1.04447;stroke-opacity:1"
           d="m 288,224 a 4,4 0 0 0 -4,4 v 40 h -40 a 4,4 0 0 0 -4,4 4,4 0 0 0 4,4 h 40 v 40 a 4,4 0 0 0 4,4 4,4 0 0 0 4,-4 v -40 h 40 a 4,4 0 0 0 4,-4 4,4 0 0 0 -4,-4 h -40 v -40 a 4,4 0 0 0 -4,-4 z"
           transform="translate(0,106.5)"
           id="path2455" />
      </g>
    </g>
    <text
       xml:space="preserve"
       style="font-weight:bold;font-size:58.1247px;line-height:1.25;font-family:Ubuntu;-inkscape-font-specification:'Ubuntu Bold';text-align:center;letter-spacing:0px;word-spacing:0px;text-anchor:middle;stroke-width:0.681147"
       x="135.64439"
       y="248.48164"
       id="text2515"><tspan
         sodipodi:role="line"
         id="tspan2513"
         style="fill:#ffffff;stroke-width:0.681147"
         x="135.64439"
         y="248.48164">ASTR</tspan></text>
    <text
       xml:space="preserve"
       style="font-weight:bold;font-size:17.9172px;line-height:1.25;font-family:Ubuntu;-inkscape-font-specification:'Ubuntu Bold';text-align:center;letter-spacing:0px;word-spacing:0px;text-anchor:middle;stroke-width:0.209966"
       x="135.61813"
       y="203.26524"
       id="text2590"><tspan
         sodipodi:role="line"
         id="tspan2588"
         style="fill:#ffffff;stroke-width:0.209966"
         x="135.61813"
         y="203.26524">Perkedel</tspan></text>
  </g>
  <metadata
     id="metadata136">
    <rdf:RDF>
      <cc:Work
         rdf:about="">
        <cc:license
           rdf:resource="http://creativecommons.org/licenses/by-sa/4.0/" />
      </cc:Work>
      <cc:License
         rdf:about="http://creativecommons.org/licenses/by-sa/4.0/">
        <cc:permits
           rdf:resource="http://creativecommons.org/ns#Reproduction" />
        <cc:permits
           rdf:resource="http://creativecommons.org/ns#Distribution" />
        <cc:requires
           rdf:resource="http://creativecommons.org/ns#Notice" />
        <cc:requires
           rdf:resource="http://creativecommons.org/ns#Attribution" />
        <cc:permits
           rdf:resource="http://creativecommons.org/ns#DerivativeWorks" />
        <cc:requires
           rdf:resource="http://creativecommons.org/ns#ShareAlike" />
      </cc:License>
    </rdf:RDF>
  </metadata>
</svg>
